<svg xmlns="http://www.w3.org/2000/svg" viewBox="0 0 566.93 566.93"><defs><style>.a{fill:#222;}</style></defs><rect class="a" x="340.91" y="340.91" width="26.85" height="26.85"/><rect class="a" x="340.91" y="369.25" width="26.85" height="26.85"/><rect class="a" x="340.91" y="312.56" width="26.85" height="26.85"/><rect class="a" x="340.91" y="255.87" width="26.85" height="26.85"/><rect class="a" x="312.56" y="510.99" width="26.85" height="26.85"/><rect class="a" x="340.91" y="284.21" width="26.85" height="26.85"/><rect class="a" x="340.91" y="482.64" width="26.85" height="26.85"/><rect class="a" x="340.91" y="510.99" width="26.85" height="26.85"/><rect class="a" x="369.25" y="0.75" width="26.85" height="26.85"/><rect class="a" x="340.91" y="454.29" width="26.85" height="26.85"/><rect class="a" x="340.91" y="397.6" width="26.85" height="26.85"/><rect class="a" x="340.91" y="29.1" width="26.85" height="26.85"/><rect class="a" x="340.91" y="227.52" width="26.85" height="26.85"/><rect class="a" x="340.91" y="85.79" width="26.85" height="26.85"/><rect class="a" x="340.91" y="0.75" width="26.85" height="26.85"/><rect class="a" x="312.56" y="482.64" width="26.85" height="26.85"/><rect class="a" x="340.91" y="57.44" width="26.85" height="26.85"/><rect class="a" x="340.91" y="199.17" width="26.85" height="26.85"/><rect class="a" x="340.91" y="114.14" width="26.85" height="26.85"/><rect class="a" x="340.91" y="170.83" width="26.85" height="26.85"/><rect class="a" x="340.91" y="142.48" width="26.85" height="26.85"/><rect class="a" x="340.91" y="425.95" width="26.85" height="26.85"/><rect class="a" x="369.25" y="454.29" width="26.85" height="26.85"/><rect class="a" x="369.25" y="425.95" width="26.85" height="26.85"/><rect class="a" x="369.25" y="369.25" width="26.85" height="26.85"/><rect class="a" x="369.25" y="510.99" width="26.85" height="26.85"/><rect class="a" x="369.25" y="397.6" width="26.85" height="26.85"/><rect class="a" x="397.6" y="57.44" width="26.85" height="26.85"/><rect class="a" x="369.25" y="340.91" width="26.85" height="26.85"/><rect class="a" x="369.25" y="482.64" width="26.85" height="26.85"/><rect class="a" x="397.6" y="85.79" width="26.85" height="26.85"/><rect class="a" x="397.6" y="29.1" width="26.85" height="26.85"/><rect class="a" x="397.6" y="0.75" width="26.85" height="26.85"/><rect class="a" x="369.25" y="312.56" width="26.85" height="26.85"/><rect class="a" x="369.25" y="29.1" width="26.85" height="26.85"/><rect class="a" x="369.25" y="114.14" width="26.85" height="26.85"/><rect class="a" x="369.25" y="57.44" width="26.85" height="26.85"/><rect class="a" x="369.25" y="170.83" width="26.85" height="26.85"/><rect class="a" x="369.25" y="85.79" width="26.85" height="26.85"/><rect class="a" x="369.25" y="142.48" width="26.85" height="26.85"/><rect class="a" x="369.25" y="284.21" width="26.85" height="26.85"/><rect class="a" x="369.25" y="255.87" width="26.85" height="26.85"/><rect class="a" x="369.25" y="199.17" width="26.85" height="26.85"/><rect class="a" x="397.6" y="114.14" width="26.85" height="26.85"/><rect class="a" x="369.25" y="227.52" width="26.85" height="26.85"/><rect class="a" x="284.21" y="114.14" width="26.85" height="26.85"/><rect class="a" x="284.21" y="142.48" width="26.85" height="26.85"/><rect class="a" x="284.21" y="170.83" width="26.85" height="26.85"/><rect class="a" x="284.21" y="85.79" width="26.85" height="26.85"/><rect class="a" x="284.21" y="57.44" width="26.85" height="26.85"/><rect class="a" x="284.21" y="312.56" width="26.85" height="26.85"/><rect class="a" x="284.21" y="29.1" width="26.85" height="26.85"/><rect class="a" x="284.21" y="284.21" width="26.85" height="26.85"/><rect class="a" x="284.21" y="227.52" width="26.85" height="26.85"/><rect class="a" x="284.21" y="340.91" width="26.85" height="26.85"/><rect class="a" x="284.21" y="255.87" width="26.85" height="26.85"/><rect class="a" x="284.21" y="199.17" width="26.85" height="26.85"/><rect class="a" x="312.56" y="454.29" width="26.85" height="26.85"/><rect class="a" x="255.87" y="397.6" width="26.85" height="26.85"/><rect class="a" x="255.87" y="340.91" width="26.85" height="26.85"/><rect class="a" x="255.87" y="312.56" width="26.85" height="26.85"/><rect class="a" x="284.21" y="0.75" width="26.85" height="26.85"/><rect class="a" x="255.87" y="284.21" width="26.85" height="26.85"/><rect class="a" x="255.87" y="425.95" width="26.85" height="26.85"/><rect class="a" x="255.87" y="482.64" width="26.85" height="26.85"/><rect class="a" x="255.87" y="510.99" width="26.85" height="26.85"/><rect class="a" x="255.87" y="454.29" width="26.85" height="26.85"/><rect class="a" x="255.87" y="369.25" width="26.85" height="26.85"/><rect class="a" x="312.56" y="284.21" width="26.85" height="26.85"/><rect class="a" x="312.56" y="227.52" width="26.85" height="26.85"/><rect class="a" x="312.56" y="255.87" width="26.85" height="26.85"/><rect class="a" x="312.56" y="170.83" width="26.85" height="26.85"/><rect class="a" x="312.56" y="199.17" width="26.85" height="26.85"/><rect class="a" x="312.56" y="369.25" width="26.85" height="26.85"/><rect class="a" x="312.56" y="397.6" width="26.85" height="26.85"/><rect class="a" x="312.56" y="425.95" width="26.85" height="26.85"/><rect class="a" x="312.56" y="142.48" width="26.85" height="26.85"/><rect class="a" x="312.56" y="340.91" width="26.85" height="26.85"/><rect class="a" x="312.56" y="312.56" width="26.85" height="26.85"/><rect class="a" x="312.56" y="57.44" width="26.85" height="26.85"/><rect class="a" x="284.21" y="454.29" width="26.85" height="26.85"/><rect class="a" x="284.21" y="510.99" width="26.85" height="26.85"/><rect class="a" x="284.21" y="482.64" width="26.85" height="26.85"/><rect class="a" x="284.21" y="397.6" width="26.85" height="26.85"/><rect class="a" x="284.21" y="425.95" width="26.85" height="26.85"/><rect class="a" x="312.56" y="29.1" width="26.85" height="26.85"/><rect class="a" x="284.21" y="369.25" width="26.85" height="26.85"/><rect class="a" x="312.56" y="85.79" width="26.85" height="26.85"/><rect class="a" x="312.56" y="0.75" width="26.85" height="26.85"/><rect class="a" x="312.56" y="114.14" width="26.85" height="26.85"/><rect class="a" x="510.99" y="142.48" width="26.85" height="26.85"/><rect class="a" x="482.64" y="284.21" width="26.85" height="26.85"/><rect class="a" x="482.64" y="227.52" width="26.85" height="26.85"/><rect class="a" x="482.64" y="255.87" width="26.85" height="26.85"/><rect class="a" x="482.64" y="199.17" width="26.85" height="26.85"/><rect class="a" x="482.64" y="170.83" width="26.85" height="26.85"/><rect class="a" x="482.64" y="397.6" width="26.85" height="26.85"/><rect class="a" x="482.64" y="312.56" width="26.85" height="26.85"/><rect class="a" x="482.64" y="425.95" width="26.85" height="26.85"/><rect class="a" x="482.64" y="454.29" width="26.85" height="26.85"/><rect class="a" x="482.64" y="340.91" width="26.85" height="26.85"/><rect class="a" x="482.64" y="369.25" width="26.85" height="26.85"/><rect class="a" x="482.64" y="142.48" width="26.85" height="26.85"/><rect class="a" x="454.29" y="454.29" width="26.85" height="26.85"/><rect class="a" x="454.29" y="510.99" width="26.85" height="26.85"/><rect class="a" x="454.29" y="482.64" width="26.85" height="26.85"/><rect class="a" x="454.29" y="397.6" width="26.85" height="26.85"/><rect class="a" x="454.29" y="425.95" width="26.85" height="26.85"/><rect class="a" x="482.64" y="29.1" width="26.85" height="26.85"/><rect class="a" x="482.64" y="85.79" width="26.85" height="26.85"/><rect class="a" x="482.64" y="57.44" width="26.85" height="26.85"/><rect class="a" x="482.64" y="0.75" width="26.85" height="26.85"/><rect class="a" x="482.64" y="114.14" width="26.85" height="26.85"/><rect class="a" x="510.99" y="510.99" width="26.85" height="26.85"/><rect class="a" x="510.99" y="369.25" width="26.85" height="26.85"/><rect class="a" x="510.99" y="340.91" width="26.85" height="26.85"/><rect class="a" x="510.99" y="397.6" width="26.85" height="26.85"/><rect class="a" x="510.99" y="312.56" width="26.85" height="26.85"/><rect class="a" x="510.99" y="255.87" width="26.85" height="26.85"/><rect class="a" x="510.99" y="284.21" width="26.85" height="26.85"/><rect class="a" x="510.99" y="482.64" width="26.85" height="26.85"/><rect class="a" x="454.29" y="369.25" width="26.85" height="26.85"/><rect class="a" x="510.99" y="425.95" width="26.85" height="26.85"/><rect class="a" x="510.99" y="454.29" width="26.85" height="26.85"/><rect class="a" x="510.99" y="29.1" width="26.85" height="26.85"/><rect class="a" x="510.99" y="85.79" width="26.85" height="26.85"/><rect class="a" x="482.64" y="510.99" width="26.85" height="26.85"/><rect class="a" x="510.99" y="57.44" width="26.85" height="26.85"/><rect class="a" x="482.64" y="482.64" width="26.85" height="26.85"/><rect class="a" x="510.99" y="0.75" width="26.85" height="26.85"/><rect class="a" x="510.99" y="199.17" width="26.85" height="26.85"/><rect class="a" x="510.99" y="227.52" width="26.85" height="26.85"/><rect class="a" x="510.99" y="114.14" width="26.85" height="26.85"/><rect class="a" x="510.99" y="170.83" width="26.85" height="26.85"/><rect class="a" x="255.87" y="255.87" width="26.85" height="26.85"/><rect class="a" x="397.6" y="255.87" width="26.85" height="26.85"/><rect class="a" x="425.95" y="29.1" width="26.85" height="26.85"/><rect class="a" x="397.6" y="454.29" width="26.85" height="26.85"/><rect class="a" x="397.6" y="510.99" width="26.85" height="26.85"/><rect class="a" x="425.95" y="57.44" width="26.85" height="26.85"/><rect class="a" x="397.6" y="482.64" width="26.85" height="26.85"/><rect class="a" x="425.95" y="0.75" width="26.85" height="26.85"/><rect class="a" x="425.95" y="170.83" width="26.85" height="26.85"/><rect class="a" x="425.95" y="227.52" width="26.85" height="26.85"/><rect class="a" x="425.95" y="114.14" width="26.85" height="26.85"/><rect class="a" x="425.95" y="142.48" width="26.85" height="26.85"/><rect class="a" x="425.95" y="85.79" width="26.85" height="26.85"/><rect class="a" x="425.95" y="199.17" width="26.85" height="26.85"/><rect class="a" x="397.6" y="227.52" width="26.85" height="26.85"/><rect class="a" x="397.6" y="284.21" width="26.85" height="26.85"/><rect class="a" x="397.6" y="142.48" width="26.85" height="26.85"/><rect class="a" x="397.6" y="170.83" width="26.85" height="26.85"/><rect class="a" x="397.6" y="199.17" width="26.85" height="26.85"/><rect class="a" x="397.6" y="340.91" width="26.85" height="26.85"/><rect class="a" x="397.6" y="397.6" width="26.85" height="26.85"/><rect class="a" x="397.6" y="369.25" width="26.85" height="26.85"/><rect class="a" x="397.6" y="425.95" width="26.85" height="26.85"/><rect class="a" x="397.6" y="312.56" width="26.85" height="26.85"/><rect class="a" x="425.95" y="369.25" width="26.85" height="26.85"/><rect class="a" x="454.29" y="170.83" width="26.85" height="26.85"/><rect class="a" x="454.29" y="142.48" width="26.85" height="26.85"/><rect class="a" x="454.29" y="57.44" width="26.85" height="26.85"/><rect class="a" x="454.29" y="85.79" width="26.85" height="26.85"/><rect class="a" x="454.29" y="114.14" width="26.85" height="26.85"/><rect class="a" x="454.29" y="199.17" width="26.85" height="26.85"/><rect class="a" x="454.29" y="227.52" width="26.85" height="26.85"/><rect class="a" x="454.29" y="284.21" width="26.85" height="26.85"/><rect class="a" x="454.29" y="312.56" width="26.85" height="26.85"/><rect class="a" x="454.29" y="255.87" width="26.85" height="26.85"/><rect class="a" x="454.29" y="29.1" width="26.85" height="26.85"/><rect class="a" x="454.29" y="340.91" width="26.85" height="26.85"/><rect class="a" x="425.95" y="255.87" width="26.85" height="26.85"/><rect class="a" x="425.95" y="397.6" width="26.85" height="26.85"/><rect class="a" x="425.95" y="312.56" width="26.85" height="26.85"/><rect class="a" x="425.95" y="284.21" width="26.85" height="26.85"/><rect class="a" x="425.95" y="340.91" width="26.85" height="26.85"/><rect class="a" x="425.95" y="425.95" width="26.85" height="26.85"/><rect class="a" x="454.29" y="0.75" width="26.85" height="26.85"/><rect class="a" x="425.95" y="482.64" width="26.85" height="26.85"/><rect class="a" x="425.95" y="454.29" width="26.85" height="26.85"/><rect class="a" x="425.95" y="510.99" width="26.85" height="26.85"/><rect class="a" x="85.79" y="57.44" width="26.85" height="26.85"/><rect class="a" x="85.79" y="29.1" width="26.85" height="26.85"/><rect class="a" x="85.79" y="85.79" width="26.85" height="26.85"/><rect class="a" x="57.44" y="482.64" width="26.85" height="26.85"/><rect class="a" x="85.79" y="0.75" width="26.85" height="26.85"/><rect class="a" x="85.79" y="170.83" width="26.85" height="26.85"/><rect class="a" x="85.79" y="227.52" width="26.85" height="26.85"/><rect class="a" x="85.79" y="199.17" width="26.85" height="26.85"/><rect class="a" x="85.79" y="142.48" width="26.85" height="26.85"/><rect class="a" x="85.79" y="255.87" width="26.85" height="26.85"/><rect class="a" x="57.44" y="510.99" width="26.85" height="26.85"/><rect class="a" x="85.79" y="114.14" width="26.85" height="26.85"/><rect class="a" x="57.44" y="312.56" width="26.85" height="26.85"/><rect class="a" x="57.44" y="284.21" width="26.85" height="26.85"/><rect class="a" x="57.44" y="255.87" width="26.85" height="26.85"/><rect class="a" x="255.87" y="227.52" width="26.85" height="26.85"/><rect class="a" x="57.44" y="227.52" width="26.85" height="26.85"/><rect class="a" x="57.44" y="369.25" width="26.85" height="26.85"/><rect class="a" x="57.44" y="397.6" width="26.85" height="26.85"/><rect class="a" x="57.44" y="425.95" width="26.85" height="26.85"/><rect class="a" x="57.44" y="454.29" width="26.85" height="26.85"/><rect class="a" x="57.44" y="340.91" width="26.85" height="26.85"/><rect class="a" x="114.14" y="227.52" width="26.85" height="26.85"/><rect class="a" x="114.14" y="170.83" width="26.85" height="26.85"/><rect class="a" x="114.14" y="199.17" width="26.85" height="26.85"/><rect class="a" x="85.79" y="284.21" width="26.85" height="26.85"/><rect class="a" x="114.14" y="114.14" width="26.85" height="26.85"/><rect class="a" x="114.14" y="85.79" width="26.85" height="26.85"/><rect class="a" x="114.14" y="57.44" width="26.85" height="26.85"/><rect class="a" x="114.14" y="340.91" width="26.85" height="26.85"/><rect class="a" x="57.44" y="170.83" width="26.85" height="26.85"/><rect class="a" x="114.14" y="312.56" width="26.85" height="26.85"/><rect class="a" x="114.14" y="255.87" width="26.85" height="26.85"/><rect class="a" x="114.14" y="284.21" width="26.85" height="26.85"/><rect class="a" x="114.14" y="142.48" width="26.85" height="26.85"/><rect class="a" x="85.79" y="397.6" width="26.85" height="26.85"/><rect class="a" x="85.79" y="369.25" width="26.85" height="26.85"/><rect class="a" x="85.79" y="340.91" width="26.85" height="26.85"/><rect class="a" x="85.79" y="425.95" width="26.85" height="26.85"/><rect class="a" x="85.79" y="312.56" width="26.85" height="26.85"/><rect class="a" x="114.14" y="0.75" width="26.85" height="26.85"/><rect class="a" x="85.79" y="454.29" width="26.85" height="26.85"/><rect class="a" x="85.79" y="482.64" width="26.85" height="26.85"/><rect class="a" x="114.14" y="29.1" width="26.85" height="26.85"/><rect class="a" x="85.79" y="510.99" width="26.85" height="26.85"/><rect class="a" x="29.1" y="142.48" width="26.85" height="26.85"/><rect class="a" x="0.75" y="369.25" width="26.85" height="26.85"/><rect class="a" x="0.75" y="397.6" width="26.85" height="26.85"/><rect class="a" x="0.75" y="312.56" width="26.85" height="26.85"/><rect class="a" x="0.75" y="340.91" width="26.85" height="26.85"/><rect class="a" x="0.75" y="425.95" width="26.85" height="26.85"/><rect class="a" x="0.75" y="284.21" width="26.85" height="26.85"/><rect class="a" x="29.1" y="0.75" width="26.85" height="26.85"/><rect class="a" x="0.75" y="454.29" width="26.85" height="26.85"/><rect class="a" x="29.1" y="57.44" width="26.85" height="26.85"/><rect class="a" x="0.75" y="482.64" width="26.85" height="26.85"/><rect class="a" x="0.75" y="510.99" width="26.85" height="26.85"/><rect class="a" x="29.1" y="29.1" width="26.85" height="26.85"/><rect class="a" x="0.75" y="114.14" width="26.85" height="26.85"/><rect class="a" x="0.75" y="57.44" width="26.85" height="26.85"/><rect class="a" x="0.75" y="85.79" width="26.85" height="26.85"/><rect class="a" x="0.75" y="255.87" width="26.85" height="26.85"/><rect class="a" x="0.75" y="29.1" width="26.85" height="26.85"/><rect class="a" x="0.75" y="0.75" width="26.85" height="26.85"/><rect class="a" x="0.75" y="199.17" width="26.85" height="26.85"/><rect class="a" x="0.75" y="227.52" width="26.85" height="26.85"/><rect class="a" x="0.75" y="170.83" width="26.85" height="26.85"/><rect class="a" x="0.75" y="142.48" width="26.85" height="26.85"/><rect class="a" x="29.1" y="227.52" width="26.85" height="26.85"/><rect class="a" x="29.1" y="482.64" width="26.85" height="26.85"/><rect class="a" x="57.44" y="0.75" width="26.85" height="26.85"/><rect class="a" x="29.1" y="510.99" width="26.85" height="26.85"/><rect class="a" x="29.1" y="425.95" width="26.85" height="26.85"/><rect class="a" x="29.1" y="454.29" width="26.85" height="26.85"/><rect class="a" x="57.44" y="57.44" width="26.85" height="26.85"/><rect class="a" x="57.44" y="85.79" width="26.85" height="26.85"/><rect class="a" x="57.44" y="114.14" width="26.85" height="26.85"/><rect class="a" x="57.44" y="29.1" width="26.85" height="26.85"/><rect class="a" x="29.1" y="397.6" width="26.85" height="26.85"/><rect class="a" x="29.1" y="369.25" width="26.85" height="26.85"/><rect class="a" x="29.1" y="199.17" width="26.85" height="26.85"/><rect class="a" x="29.1" y="170.83" width="26.85" height="26.85"/><rect class="a" x="29.1" y="85.79" width="26.85" height="26.85"/><rect class="a" x="57.44" y="142.48" width="26.85" height="26.85"/><rect class="a" x="114.14" y="369.25" width="26.85" height="26.85"/><rect class="a" x="29.1" y="114.14" width="26.85" height="26.85"/><rect class="a" x="29.1" y="312.56" width="26.85" height="26.85"/><rect class="a" x="29.1" y="255.87" width="26.85" height="26.85"/><rect class="a" x="29.1" y="340.91" width="26.85" height="26.85"/><rect class="a" x="29.1" y="284.21" width="26.85" height="26.85"/><rect class="a" x="57.44" y="199.17" width="26.85" height="26.85"/><rect class="a" x="199.18" y="454.29" width="26.85" height="26.85"/><rect class="a" x="199.18" y="510.99" width="26.85" height="26.85"/><rect class="a" x="227.52" y="142.48" width="26.85" height="26.85"/><rect class="a" x="199.18" y="425.95" width="26.85" height="26.85"/><rect class="a" x="199.18" y="482.64" width="26.85" height="26.85"/><rect class="a" x="227.52" y="57.44" width="26.85" height="26.85"/><rect class="a" x="227.52" y="85.79" width="26.85" height="26.85"/><rect class="a" x="227.52" y="114.14" width="26.85" height="26.85"/><rect class="a" x="199.18" y="369.25" width="26.85" height="26.85"/><rect class="a" x="227.52" y="0.75" width="26.85" height="26.85"/><rect class="a" x="227.52" y="29.1" width="26.85" height="26.85"/><rect class="a" x="199.18" y="397.6" width="26.85" height="26.85"/><rect class="a" x="199.18" y="170.83" width="26.85" height="26.85"/><rect class="a" x="199.18" y="199.17" width="26.85" height="26.85"/><rect class="a" x="199.18" y="142.48" width="26.85" height="26.85"/><rect class="a" x="199.18" y="340.91" width="26.85" height="26.85"/><rect class="a" x="199.18" y="114.14" width="26.85" height="26.85"/><rect class="a" x="199.18" y="85.79" width="26.85" height="26.85"/><rect class="a" x="199.18" y="312.56" width="26.85" height="26.85"/><rect class="a" x="199.18" y="284.21" width="26.85" height="26.85"/><rect class="a" x="199.18" y="255.87" width="26.85" height="26.85"/><rect class="a" x="199.18" y="227.52" width="26.85" height="26.85"/><rect class="a" x="227.52" y="255.87" width="26.85" height="26.85"/><rect class="a" x="255.87" y="85.79" width="26.85" height="26.85"/><rect class="a" x="255.87" y="29.1" width="26.85" height="26.85"/><rect class="a" x="255.87" y="57.44" width="26.85" height="26.85"/><rect class="a" x="227.52" y="482.64" width="26.85" height="26.85"/><rect class="a" x="255.87" y="0.75" width="26.85" height="26.85"/><rect class="a" x="255.87" y="142.48" width="26.85" height="26.85"/><rect class="a" x="255.87" y="170.83" width="26.85" height="26.85"/><rect class="a" x="227.52" y="170.83" width="26.85" height="26.85"/><rect class="a" x="255.87" y="114.14" width="26.85" height="26.85"/><rect class="a" x="227.52" y="510.99" width="26.85" height="26.85"/><rect class="a" x="255.87" y="199.17" width="26.85" height="26.85"/><rect class="a" x="199.18" y="57.44" width="26.85" height="26.85"/><rect class="a" x="227.52" y="284.21" width="26.85" height="26.85"/><rect class="a" x="227.52" y="227.52" width="26.85" height="26.85"/><rect class="a" x="227.52" y="312.56" width="26.85" height="26.85"/><rect class="a" x="227.52" y="199.17" width="26.85" height="26.85"/><rect class="a" x="227.52" y="454.29" width="26.85" height="26.85"/><rect class="a" x="227.52" y="340.91" width="26.85" height="26.85"/><rect class="a" x="227.52" y="425.95" width="26.85" height="26.85"/><rect class="a" x="227.52" y="397.6" width="26.85" height="26.85"/><rect class="a" x="227.52" y="369.25" width="26.85" height="26.85"/><rect class="a" x="170.83" y="85.79" width="26.85" height="26.85"/><rect class="a" x="142.48" y="284.21" width="26.85" height="26.85"/><rect class="a" x="142.48" y="255.87" width="26.85" height="26.85"/><rect class="a" x="142.48" y="170.83" width="26.85" height="26.85"/><rect class="a" x="142.48" y="312.56" width="26.85" height="26.85"/><rect class="a" x="142.48" y="227.52" width="26.85" height="26.85"/><rect class="a" x="142.48" y="199.17" width="26.85" height="26.85"/><rect class="a" x="142.48" y="510.99" width="26.85" height="26.85"/><rect class="a" x="142.48" y="425.95" width="26.85" height="26.85"/><rect class="a" x="142.48" y="340.91" width="26.85" height="26.85"/><rect class="a" x="142.48" y="369.25" width="26.85" height="26.85"/><rect class="a" x="142.48" y="397.6" width="26.85" height="26.85"/><rect class="a" x="142.48" y="454.29" width="26.85" height="26.85"/><rect class="a" x="114.14" y="482.64" width="26.85" height="26.85"/><rect class="a" x="114.14" y="510.99" width="26.85" height="26.85"/><rect class="a" x="199.18" y="29.1" width="26.85" height="26.85"/><rect class="a" x="114.14" y="425.95" width="26.85" height="26.85"/><rect class="a" x="142.48" y="0.75" width="26.85" height="26.85"/><rect class="a" x="142.48" y="85.79" width="26.85" height="26.85"/><rect class="a" x="142.48" y="142.48" width="26.85" height="26.85"/><rect class="a" x="142.48" y="114.14" width="26.85" height="26.85"/><rect class="a" x="142.48" y="57.44" width="26.85" height="26.85"/><rect class="a" x="142.48" y="29.1" width="26.85" height="26.85"/><rect class="a" x="114.14" y="454.29" width="26.85" height="26.85"/><rect class="a" x="170.83" y="397.6" width="26.85" height="26.85"/><rect class="a" x="170.83" y="369.25" width="26.85" height="26.85"/><rect class="a" x="170.83" y="340.91" width="26.85" height="26.85"/><rect class="a" x="170.83" y="312.56" width="26.85" height="26.85"/><rect class="a" x="170.83" y="425.95" width="26.85" height="26.85"/><rect class="a" x="170.83" y="510.99" width="26.85" height="26.85"/><rect class="a" x="199.18" y="0.75" width="26.85" height="26.85"/><rect class="a" x="170.83" y="482.64" width="26.85" height="26.85"/><rect class="a" x="170.83" y="284.21" width="26.85" height="26.85"/><rect class="a" x="170.83" y="454.29" width="26.85" height="26.85"/><rect class="a" x="170.83" y="142.48" width="26.85" height="26.85"/><rect class="a" x="170.83" y="255.87" width="26.85" height="26.85"/><rect class="a" x="114.14" y="397.6" width="26.85" height="26.85"/><rect class="a" x="170.83" y="114.14" width="26.85" height="26.85"/><rect class="a" x="170.83" y="0.75" width="26.85" height="26.85"/><rect class="a" x="170.83" y="29.1" width="26.85" height="26.85"/><rect class="a" x="170.83" y="57.44" width="26.85" height="26.85"/><rect class="a" x="170.83" y="199.17" width="26.85" height="26.85"/><rect class="a" x="142.48" y="482.64" width="26.85" height="26.85"/><rect class="a" x="170.83" y="227.52" width="26.85" height="26.85"/><rect class="a" x="170.83" y="170.83" width="26.85" height="26.85"/><polygon class="a" points="566.93 0 566.93 -0.75 566.18 -0.75 566.18 0.75 539.33 0.75 539.33 27.6 566.18 27.6 566.18 29.1 539.33 29.1 539.33 55.94 566.18 55.94 566.18 57.44 539.33 57.44 539.33 84.29 566.18 84.29 566.18 85.79 539.33 85.79 539.33 112.64 566.18 112.64 566.18 114.14 539.33 114.14 539.33 140.98 566.18 140.98 566.18 142.48 539.33 142.48 539.33 169.33 566.18 169.33 566.18 170.83 539.33 170.83 539.33 197.68 566.18 197.68 566.18 199.18 539.33 199.18 539.33 226.02 566.18 226.02 566.18 227.52 539.33 227.52 539.33 254.37 566.18 254.37 566.18 255.87 539.33 255.87 539.33 282.71 566.18 282.71 566.18 284.21 539.33 284.21 539.33 311.06 566.18 311.06 566.18 312.56 539.33 312.56 539.33 339.41 566.18 339.41 566.18 340.91 539.33 340.91 539.33 367.75 566.18 367.75 566.18 369.25 539.33 369.25 539.33 396.1 566.18 396.1 566.18 397.6 539.33 397.6 539.33 424.45 566.18 424.45 566.18 425.95 539.33 425.95 539.33 452.79 566.18 452.79 566.18 454.29 539.33 454.29 539.33 481.14 566.18 481.14 566.18 482.64 539.33 482.64 539.33 509.49 566.18 509.49 566.18 510.99 539.33 510.99 539.33 537.83 566.18 537.83 566.18 539.33 539.33 539.33 539.33 566.18 537.83 566.18 537.83 539.33 510.99 539.33 510.99 566.18 509.49 566.18 509.49 539.33 482.64 539.33 482.64 566.18 481.14 566.18 481.14 539.33 454.29 539.33 454.29 566.18 452.79 566.18 452.79 539.33 425.95 539.33 425.95 566.18 424.45 566.18 424.45 539.33 397.6 539.33 397.6 566.18 396.1 566.18 396.1 539.33 369.25 539.33 369.25 566.18 367.75 566.18 367.75 539.33 340.91 539.33 340.91 566.18 339.41 566.18 339.41 539.33 312.56 539.33 312.56 566.18 311.06 566.18 311.06 539.33 284.21 539.33 284.21 566.18 282.71 566.18 282.71 539.33 255.87 539.33 255.87 566.18 254.37 566.18 254.37 539.33 227.52 539.33 227.52 566.18 226.02 566.18 226.02 539.33 199.18 539.33 199.18 566.18 197.68 566.18 197.68 539.33 170.83 539.33 170.83 566.18 169.33 566.18 169.33 539.33 142.48 539.33 142.48 566.18 140.98 566.18 140.98 539.33 114.14 539.33 114.14 566.18 112.64 566.18 112.64 539.33 85.79 539.33 85.79 566.18 84.29 566.18 84.29 539.33 57.44 539.33 57.44 566.18 55.94 566.18 55.94 539.33 29.1 539.33 29.1 566.18 27.6 566.18 27.6 539.33 0.75 539.33 0.75 566.18 0 566.18 0 0 -0.75 0 -0.75 566.93 0 566.93 0 567.68 566.93 567.68 566.93 566.93 567.68 566.93 567.68 0 566.93 0"/></svg>
