<svg xmlns="http://www.w3.org/2000/svg" viewBox="0 0 566.93 566.93"><defs><style>.a{fill:#231f20;}</style></defs><polygon class="a" points="0.71 567.64 1.41 566.93 0 566.93 0.71 567.64"/><polygon class="a" points="567.64 0.71 566.93 0 566.93 1.41 567.64 0.71"/><polygon class="a" points="25.02 589.91 26.55 591.2 46.91 566.93 44.3 566.93 25.02 589.91"/><polygon class="a" points="52.71 611.27 54.35 612.42 86.2 566.93 83.76 566.93 52.71 611.27"/><polygon class="a" points="82.16 630.14 83.89 631.14 120.96 566.93 118.65 566.93 82.16 630.14"/><polygon class="a" points="113.14 646.36 114.95 647.21 152.39 566.93 150.18 566.93 113.14 646.36"/><polygon class="a" points="145.42 659.83 147.29 660.51 181.36 566.93 179.23 566.93 145.42 659.83"/><polygon class="a" points="178.74 670.43 180.68 670.94 208.54 566.93 206.47 566.93 178.74 670.43"/><polygon class="a" points="212.87 678.08 214.84 678.43 234.5 566.93 232.47 566.93 212.87 678.08"/><polygon class="a" points="247.53 682.73 249.52 682.9 259.67 566.93 257.66 566.93 247.53 682.73"/><rect class="a" x="282.46" y="566.93" width="2" height="117.41"/><polygon class="a" points="317.41 682.9 319.4 682.73 309.27 566.93 307.26 566.93 317.41 682.9"/><polygon class="a" points="352.09 678.43 354.06 678.08 334.46 566.93 332.43 566.93 352.09 678.43"/><polygon class="a" points="386.25 670.94 388.19 670.43 360.45 566.93 358.38 566.93 386.25 670.94"/><polygon class="a" points="419.63 660.51 421.51 659.83 387.7 566.93 385.57 566.93 419.63 660.51"/><polygon class="a" points="451.98 647.21 453.79 646.36 416.75 566.93 414.54 566.93 451.98 647.21"/><polygon class="a" points="483.04 631.14 484.77 630.14 448.28 566.93 445.97 566.93 483.04 631.14"/><polygon class="a" points="512.58 612.42 514.22 611.27 483.17 566.93 480.73 566.93 512.58 612.42"/><polygon class="a" points="540.38 591.2 541.91 589.91 522.63 566.93 520.01 566.93 540.38 591.2"/><polygon class="a" points="566.22 567.64 566.93 566.93 565.51 566.93 566.22 567.64"/><polygon class="a" points="567.64 566.22 566.93 565.51 566.93 566.93 567.64 566.22"/><polygon class="a" points="589.91 541.91 591.2 540.38 566.93 520.01 566.93 522.62 589.91 541.91"/><polygon class="a" points="611.27 514.22 612.42 512.58 566.93 480.73 566.93 483.17 611.27 514.22"/><polygon class="a" points="630.14 484.77 631.14 483.04 566.93 445.97 566.93 448.28 630.14 484.77"/><polygon class="a" points="646.36 453.79 647.21 451.98 566.93 414.54 566.93 416.75 646.36 453.79"/><polygon class="a" points="659.83 421.51 660.51 419.63 566.93 385.57 566.93 387.7 659.83 421.51"/><polygon class="a" points="670.42 388.19 670.94 386.25 566.93 358.38 566.93 360.45 670.42 388.19"/><polygon class="a" points="678.08 354.06 678.43 352.09 566.93 332.43 566.93 334.46 678.08 354.06"/><polygon class="a" points="682.73 319.4 682.91 317.41 566.93 307.26 566.93 309.27 682.73 319.4"/><rect class="a" x="566.93" y="282.46" width="117.42" height="2"/><polygon class="a" points="682.91 249.52 682.73 247.53 566.93 257.66 566.93 259.67 682.91 249.52"/><polygon class="a" points="678.43 214.84 678.08 212.87 566.93 232.47 566.93 234.5 678.43 214.84"/><polygon class="a" points="670.94 180.68 670.42 178.74 566.93 206.47 566.93 208.54 670.94 180.68"/><polygon class="a" points="660.51 147.29 659.83 145.42 566.93 179.23 566.93 181.36 660.51 147.29"/><polygon class="a" points="647.21 114.95 646.36 113.14 566.93 150.18 566.93 152.39 647.21 114.95"/><polygon class="a" points="631.14 83.89 630.14 82.16 566.93 118.65 566.93 120.96 631.14 83.89"/><polygon class="a" points="612.42 54.35 611.27 52.71 566.93 83.76 566.93 86.2 612.42 54.35"/><polygon class="a" points="591.2 26.55 589.91 25.02 566.93 44.3 566.93 46.91 591.2 26.55"/><polygon class="a" points="566.93 566.93 566.93 566.93 566.93 566.93 566.93 566.93"/><polygon class="a" points="0 566.93 0 566.93 0 566.93 0 566.93"/><polygon class="a" points="0 0 0 0 0 0 0 0"/><path class="a" d="M337.92,284.46c0-.61,0-1.22,0-1.84v-.16h229V259.67l-229,20c0-.67-.1-1.33-.15-2l229.19-20V234.5L337.42,275c-.09-.67-.2-1.32-.31-2l229.82-40.52V208.55L336.56,270.27c-.15-.65-.31-1.3-.48-1.94l230.85-61.85V181.36L335.29,265.67c-.2-.64-.41-1.27-.64-1.9l232.28-84.54V152.39L333.63,261.18c-.26-.62-.54-1.22-.82-1.83L566.93,150.18V121L331.56,256.85c-.31-.59-.64-1.17-1-1.75L566.93,118.65V86.2L329.12,252.72c-.36-.56-.73-1.12-1.12-1.66L566.93,83.76V46.92L326.33,248.8c-.41-.53-.82-1.05-1.25-1.56L566.93,44.3V1.41L323.21,245.13c-.46-.48-.91-1-1.38-1.44L565.52,0h-42.9L319.78,241.74c-.5-.44-1-.88-1.51-1.3L520,0H483.17L316.05,238.67c-.53-.4-1.08-.79-1.62-1.17L480.73,0H448.28L312.06,235.93c-.56-.35-1.14-.69-1.72-1L446,0H416.75L307.84,233.55c-.59-.3-1.19-.6-1.79-.88L414.54,0H387.7L303.43,231.54c-.62-.25-1.24-.49-1.87-.72L385.57,0H360.45L298.84,229.93c-.63-.19-1.27-.38-1.92-.55L358.38,0H334.46L294.13,228.73c-.65-.14-1.31-.25-2-.36L332.43,0H309.27L289.32,228l-2-.19L307.26,0h-22.8V227.62c-.51,0-1,0-1.54,0h-.46V0H259.67l19.92,227.69c-.67,0-1.33.09-2,.15L257.66,0H234.5l40.23,228.19c-.66.1-1.31.22-2,.34L232.47,0H208.55l61.39,229.14c-.65.15-1.29.32-1.93.5L206.48,0H181.36l83.89,230.5c-.63.21-1.26.43-1.88.67L179.23,0H152.39L260.7,232.27c-.62.27-1.22.54-1.82.83L150.18,0H121L256.31,234.44c-.58.32-1.16.65-1.73,1L118.65,0H86.2L252.14,237c-.55.37-1.09.76-1.63,1.16L83.76,0H46.91L248.22,239.91c-.52.42-1,.85-1.52,1.29L44.3,0H1.41L244.57,243.16c-.47.46-.94.94-1.4,1.42L0,1.41V44.3L241.23,246.72c-.44.5-.87,1-1.28,1.53L0,46.91V83.76L238.2,250.55c-.38.54-.77,1.09-1.14,1.64L0,86.2v32.45l235.53,136c-.34.57-.68,1.14-1,1.73L0,121v29.22L233.23,258.94c-.29.6-.56,1.21-.82,1.82L0,152.39v26.84l231.33,84.19c-.23.63-.44,1.26-.65,1.89L0,181.36v25.12l229.84,61.58c-.17.64-.33,1.29-.49,1.94L0,208.55v23.92l228.77,40.34c-.11.65-.23,1.31-.32,2L0,234.5v23.16l228.12,20c-.06.66-.12,1.32-.15,2L0,259.67v22.79H227.89c0,.06,0,.11,0,.16,0,.62,0,1.23.05,1.84H0v22.8l228.1-19.95c.05.66.12,1.32.2,2L0,309.27v23.16L228.71,292.1c.12.66.24,1.32.37,2L0,334.46v23.92l229.74-61.56c.17.65.35,1.29.55,1.93L0,360.45v25.12l231.18-84.14c.23.63.48,1.25.73,1.86L0,387.7v26.84L233,305.88c.28.6.57,1.2.88,1.79L0,416.75V446L235.26,310.14c.34.58.68,1.15,1,1.71L0,448.28v32.45L237.85,314.19c.38.54.76,1.09,1.17,1.62L0,483.17V520L240.76,318c.43.51.86,1,1.31,1.51L0,522.62v42.89l244-244c.47.47,1,.92,1.45,1.38l-244,244H44.3L247.52,324.75c.51.43,1,.85,1.55,1.26L46.91,566.93H83.76L251.3,327.66c.54.38,1.1.76,1.66,1.12L86.2,566.93h32.45l136.66-236.7,1.74,1L121,566.93h29.22L259.52,332.44c.6.29,1.21.57,1.82.83L152.39,566.93h26.84L263.9,334.29c.63.23,1.26.43,1.9.64l-84.44,232h25.12l62-231.21c.64.17,1.29.34,1.94.49L208.55,566.93h23.92l40.58-230.17c.66.12,1.31.23,2,.33L234.5,566.93h23.16l20.08-229.52c.66.06,1.33.12,2,.15L259.67,566.93h22.79V337.65h.46c.52,0,1,0,1.54,0V566.93h22.8L287.19,337.48c.66-.05,1.33-.11,2-.18l20.09,229.63h23.16l-40.55-230c.66-.11,1.31-.22,2-.35l40.62,230.35h23.92L296.5,336c.65-.16,1.29-.35,1.92-.54l62,231.5h25.12L301,334.61c.64-.22,1.26-.46,1.88-.7l84.81,233h26.84L305.4,332.86c.61-.27,1.21-.55,1.81-.84L416.75,566.93H446L309.61,330.76c.59-.33,1.17-.65,1.74-1L448.28,566.93h32.45L313.64,328.3c.55-.37,1.09-.76,1.63-1.16l167.9,239.79H520L317.43,325.49c.52-.41,1-.85,1.53-1.28L522.62,566.93h42.9L321,322.38c.48-.46.95-.93,1.42-1.41L566.93,565.51V522.62L324.23,319c.44-.5.88-1,1.3-1.52L566.93,520V483.17L327.2,315.31c.4-.53.78-1.08,1.16-1.63L566.93,480.73V448.28L329.85,311.4c.34-.57.68-1.15,1-1.73L566.93,446V416.75L332.14,307.26c.3-.59.58-1.19.86-1.8L566.93,414.54V387.7L334.07,303c.25-.62.49-1.24.71-1.87l232.15,84.49V360.45l-231.29-62c.19-.64.37-1.28.54-1.93l230.75,61.83V334.46L336.81,293.89c.13-.65.25-1.31.36-2l229.76,40.51V309.27L337.56,289.2c.08-.66.14-1.32.2-2l229.17,20.05v-22.8Z"/></svg>